<?xml version="1.0" encoding="UTF-8"?>
<svg width="800" height="400" viewBox="0 0 800 400" fill="none" xmlns="http://www.w3.org/2000/svg">
  <!-- Background -->
  <rect width="800" height="400" fill="#F3F4F6"/>
  
  <!-- Sun -->
  <circle cx="400" cy="200" r="40" fill="#F59E0B"/>
  <circle cx="400" cy="200" r="35" fill="#FBBF24"/>
  
  <!-- Mercury -->
  <circle cx="500" cy="200" r="8" fill="#9CA3AF"/>
  <ellipse cx="400" cy="200" rx="100" ry="100" stroke="#9CA3AF" stroke-width="1" fill="none" opacity="0.3"/>
  
  <!-- Venus -->
  <circle cx="550" cy="150" r="12" fill="#FCD34D"/>
  <ellipse cx="400" cy="200" rx="150" ry="150" stroke="#9CA3AF" stroke-width="1" fill="none" opacity="0.3"/>
  
  <!-- Earth -->
  <circle cx="600" cy="200" r="15" fill="#4F46E5"/>
  <ellipse cx="400" cy="200" rx="200" ry="200" stroke="#9CA3AF" stroke-width="1" fill="none" opacity="0.3"/>
  
  <!-- Mars -->
  <circle cx="550" cy="250" r="10" fill="#EF4444"/>
  <ellipse cx="400" cy="200" rx="150" ry="150" stroke="#9CA3AF" stroke-width="1" fill="none" opacity="0.3"/>
  
  <!-- Jupiter -->
  <circle cx="300" cy="200" r="25" fill="#F59E0B"/>
  <ellipse cx="400" cy="200" rx="100" ry="100" stroke="#9CA3AF" stroke-width="1" fill="none" opacity="0.3"/>
  
  <!-- Saturn -->
  <circle cx="200" cy="200" r="20" fill="#FCD34D"/>
  <ellipse cx="200" cy="200" rx="25" ry="8" stroke="#9CA3AF" stroke-width="1" fill="none" opacity="0.5"/>
  <ellipse cx="400" cy="200" rx="200" ry="200" stroke="#9CA3AF" stroke-width="1" fill="none" opacity="0.3"/>
  
  <!-- Stars -->
  <circle cx="100" cy="100" r="1" fill="#4F46E5"/>
  <circle cx="150" cy="150" r="1.5" fill="#4F46E5"/>
  <circle cx="200" cy="80" r="1" fill="#4F46E5"/>
  <circle cx="600" cy="120" r="1.5" fill="#4F46E5"/>
  <circle cx="650" cy="180" r="1" fill="#4F46E5"/>
  <circle cx="700" cy="100" r="1.5" fill="#4F46E5"/>
  
  <!-- Data Panel -->
  <rect x="50" y="320" width="700" height="60" rx="8" fill="#4F46E5" opacity="0.1"/>
  <rect x="70" y="340" width="120" height="20" rx="4" fill="#4F46E5"/>
  <rect x="210" y="340" width="100" height="20" rx="4" fill="#9CA3AF"/>
  <rect x="330" y="340" width="140" height="20" rx="4" fill="#4F46E5"/>
  <rect x="490" y="340" width="110" height="20" rx="4" fill="#9CA3AF"/>
  <rect x="620" y="340" width="110" height="20" rx="4" fill="#4F46E5"/>
</svg> 