<?xml version="1.0" encoding="UTF-8"?>
<svg width="800" height="400" viewBox="0 0 800 400" fill="none" xmlns="http://www.w3.org/2000/svg">
  <!-- Background -->
  <rect width="800" height="400" fill="#F3F4F6"/>
  
  <!-- Laptop Frame -->
  <rect x="200" y="100" width="400" height="250" rx="8" fill="#4F46E5"/>
  <rect x="220" y="120" width="360" height="210" rx="4" fill="#1F2937"/>
  
  <!-- Screen Content -->
  <rect x="240" y="140" width="320" height="20" rx="2" fill="#4F46E5" opacity="0.5"/>
  <rect x="240" y="170" width="240" height="10" rx="2" fill="#9CA3AF"/>
  <rect x="240" y="190" width="280" height="10" rx="2" fill="#9CA3AF"/>
  <rect x="240" y="210" width="200" height="10" rx="2" fill="#9CA3AF"/>
  
  <!-- Code Elements -->
  <rect x="240" y="240" width="80" height="10" rx="2" fill="#4F46E5"/>
  <rect x="330" y="240" width="60" height="10" rx="2" fill="#9CA3AF"/>
  <rect x="400" y="240" width="100" height="10" rx="2" fill="#4F46E5"/>
  
  <!-- Laptop Base -->
  <path d="M300 350 L500 350 L480 380 L320 380 Z" fill="#4F46E5"/>
  
  <!-- Decorative Elements -->
  <circle cx="400" cy="50" r="20" fill="#4F46E5" opacity="0.2"/>
  <circle cx="450" cy="70" r="15" fill="#4F46E5" opacity="0.2"/>
  <circle cx="350" cy="70" r="15" fill="#4F46E5" opacity="0.2"/>
</svg> 