<?xml version="1.0" encoding="UTF-8"?>
<svg width="800" height="400" viewBox="0 0 800 400" fill="none" xmlns="http://www.w3.org/2000/svg">
  <!-- Background -->
  <rect width="800" height="400" fill="#F3F4F6"/>
  
  <!-- Earth -->
  <circle cx="400" cy="200" r="100" fill="#4F46E5"/>
  <path d="M400 100 C450 150, 450 250, 400 300 C350 250, 350 150, 400 100" fill="#3B82F6" opacity="0.5"/>
  <path d="M300 200 C350 180, 450 180, 500 200 C450 220, 350 220, 300 200" fill="#3B82F6" opacity="0.3"/>
  
  <!-- ISS -->
  <g transform="translate(400, 200) rotate(45)">
    <rect x="-20" y="-10" width="40" height="20" fill="#9CA3AF"/>
    <rect x="-15" y="-15" width="30" height="5" fill="#6B7280"/>
    <rect x="-15" y="10" width="30" height="5" fill="#6B7280"/>
  </g>
  
  <!-- Orbit Path -->
  <ellipse cx="400" cy="200" rx="150" ry="150" stroke="#9CA3AF" stroke-width="2" fill="none" opacity="0.3"/>
  
  <!-- Stars -->
  <circle cx="100" cy="100" r="2" fill="#4F46E5"/>
  <circle cx="150" cy="150" r="1.5" fill="#4F46E5"/>
  <circle cx="200" cy="80" r="2" fill="#4F46E5"/>
  <circle cx="600" cy="120" r="1.5" fill="#4F46E5"/>
  <circle cx="650" cy="180" r="2" fill="#4F46E5"/>
  <circle cx="700" cy="100" r="1.5" fill="#4F46E5"/>
  
  <!-- Data Elements -->
  <rect x="50" y="300" width="700" height="60" rx="8" fill="#4F46E5" opacity="0.1"/>
  <rect x="70" y="320" width="100" height="20" rx="4" fill="#4F46E5"/>
  <rect x="190" y="320" width="80" height="20" rx="4" fill="#9CA3AF"/>
  <rect x="290" y="320" width="120" height="20" rx="4" fill="#4F46E5"/>
  <rect x="430" y="320" width="90" height="20" rx="4" fill="#9CA3AF"/>
  <rect x="540" y="320" width="110" height="20" rx="4" fill="#4F46E5"/>
  <rect x="670" y="320" width="60" height="20" rx="4" fill="#9CA3AF"/>
</svg> 